<svg xmlns="http://www.w3.org/2000/svg" width="96" height="16" fill="none" viewBox="0 0 96 16"><g clip-path="url(#a)"><path fill="#2b7fff" d="M9.424 3h-.815l-.576 2.928L7.133 3H5.857l-.9 2.928L3.504 3h-2.05L0 5.928v4.144L1.453 13h2.052l1.453-2.928.9 2.928h1.274l.9-2.928L8.608 13h.815l.576-2.928V5.928z"/></g><path fill="#fff" d="M15.032 12V3.48h2.736q2.004 0 3.084 1.116 1.08 1.104 1.08 3.156 0 2.04-1.068 3.144Q19.808 12 17.84 12zm1.296-1.188h1.44q1.416 0 2.112-.756.708-.768.708-2.304 0-1.56-.708-2.316-.696-.768-2.112-.768h-1.44zm9.802 1.332q-.912 0-1.596-.408a2.7 2.7 0 0 1-1.056-1.164q-.372-.756-.372-1.764 0-1.02.372-1.764t1.056-1.152q.684-.42 1.596-.42t1.596.42q.684.408 1.056 1.152t.372 1.764q0 1.008-.372 1.764t-1.056 1.164-1.596.408m0-1.104q.816 0 1.26-.588.444-.6.444-1.644t-.444-1.632q-.444-.6-1.26-.6-.804 0-1.26.6-.444.588-.444 1.632t.444 1.644q.456.588 1.26.588m6.937 1.104q-.912 0-1.596-.408a2.7 2.7 0 0 1-1.056-1.164q-.372-.756-.372-1.764t.372-1.752q.372-.756 1.056-1.164.684-.42 1.596-.42.78 0 1.38.276.612.264.984.78.384.516.492 1.26l-1.332.072q-.096-.624-.504-.948-.408-.336-1.02-.336-.804 0-1.26.6-.444.588-.444 1.632t.444 1.644q.456.588 1.26.588.612 0 1.02-.336.408-.348.504-1.044l1.332.072a2.9 2.9 0 0 1-.492 1.272q-.372.54-.984.84-.6.3-1.38.3M37.084 12V3.48h1.272v5.292l2.868-3.156h1.608l-2.496 2.688L42.928 12h-1.464l-1.98-2.904-1.128 1.2V12zm9.26.144q-.936 0-1.62-.408a2.74 2.74 0 0 1-1.044-1.164q-.36-.756-.36-1.764t.36-1.752a2.74 2.74 0 0 1 1.044-1.164q.672-.42 1.584-.42.864 0 1.524.408.66.396 1.02 1.152.372.756.372 1.824v.324H44.64q.048.936.492 1.404.456.468 1.224.468.564 0 .936-.264t.516-.708l1.32.084a2.65 2.65 0 0 1-.996 1.44q-.732.54-1.788.54M44.64 8.22h3.24q-.06-.852-.492-1.26-.42-.408-1.08-.408-.684 0-1.128.432-.432.42-.54 1.236M50.513 12V5.616h1.164l.048 1.692-.108-.036q.132-.864.528-1.26.408-.396 1.092-.396h.612v1.14h-.612q-.48 0-.804.156a1.06 1.06 0 0 0-.492.48q-.156.324-.156.84V12zm7.773 0V3.48h2.736q2.004 0 3.084 1.116 1.08 1.104 1.08 3.156 0 2.04-1.068 3.144Q63.062 12 61.094 12zm1.296-1.188h1.44q1.416 0 2.112-.756.708-.768.708-2.304 0-1.56-.708-2.316-.696-.768-2.112-.768h-1.44zm9.801 1.332q-.912 0-1.596-.408a2.7 2.7 0 0 1-1.056-1.164q-.37-.756-.371-1.764 0-1.02.371-1.764.373-.744 1.056-1.152.684-.42 1.596-.42t1.597.42q.684.408 1.055 1.152.373.744.373 1.764 0 1.008-.373 1.764-.372.756-1.055 1.164-.685.408-1.597.408m0-1.104q.817 0 1.26-.588.444-.6.445-1.644 0-1.044-.444-1.632-.445-.6-1.26-.6-.805 0-1.26.6-.444.588-.444 1.632t.444 1.644q.455.588 1.26.588m6.938 1.104q-.912 0-1.596-.408a2.7 2.7 0 0 1-1.056-1.164q-.372-.756-.372-1.764t.372-1.752q.372-.756 1.056-1.164.684-.42 1.596-.42.78 0 1.38.276.612.264.984.78.384.516.492 1.26l-1.332.072q-.096-.624-.504-.948-.408-.336-1.02-.336-.804 0-1.26.6-.444.588-.444 1.632t.444 1.644q.456.588 1.26.588.612 0 1.02-.336.408-.348.504-1.044l1.332.072a2.9 2.9 0 0 1-.492 1.272q-.372.54-.984.84-.6.3-1.38.3m6.23-.144q-.912 0-1.344-.42t-.432-1.308V4.116h1.272v6.06q0 .444.192.612t.588.168h.912V12zm-2.748-5.34V5.616h3.936V6.66zm7.674 5.484q-.912 0-1.596-.408a2.7 2.7 0 0 1-1.056-1.164q-.372-.756-.372-1.764 0-1.02.372-1.764t1.056-1.152q.684-.42 1.596-.42t1.596.42q.684.408 1.056 1.152t.372 1.764q0 1.008-.372 1.764t-1.056 1.164-1.596.408m0-1.104q.816 0 1.26-.588.444-.6.444-1.644t-.444-1.632q-.444-.6-1.26-.6-.804 0-1.26.6-.444.588-.444 1.632t.444 1.644q.456.588 1.26.588m4.31.96V5.616h1.164L93 7.308l-.108-.036q.132-.864.528-1.26.408-.396 1.092-.396h.612v1.14h-.612q-.48 0-.804.156a1.06 1.06 0 0 0-.492.48q-.156.324-.156.84V12z"/><defs><clipPath id="a"><path fill="#fff" d="M0 3h10v10H0z"/></clipPath></defs></svg>
